<svg id="Layer_1" enable-background="new 0 0 512.023 512.023" height="512" viewBox="0 0 512.023 512.023" width="512"
    xmlns="http://www.w3.org/2000/svg">
    <g>
        <path d="m96.055 233.588c4.119.453 7.821-2.519 8.273-6.637 1.771-16.129 3.53-27.66 4.549-33.777 16.058-2.647 69.527-10.36 147.134-10.36 77.601 0 131.068 7.712 147.131 10.36 2.255 13.599 8.164 54.007 9.892 113.04.114 4.143 3.6 7.406 7.716 7.277 4.14-.121 7.398-3.576 7.277-7.716-2.18-74.458-10.687-118.677-11.048-120.523-.586-2.997-2.93-5.338-5.927-5.922-.889-.173-9.297-1.78-24.285-3.74 4.633-21.756 9.899-62.122-3.309-99.223-1.389-3.903-5.682-5.94-9.581-4.55-3.902 1.389-5.939 5.678-4.55 9.581 12.264 34.453 6.843 72.598 2.483 92.393-4.924-.544-10.281-1.09-16.057-1.62 15.284-66.914.568-142.752-99.743-141.191-100.248-1.642-115.232 74.582-99.768 141.193-5.763.529-11.109 1.074-16.024 1.616-5.169-23.669-12.851-78.803 15.72-117.629 35.77-55.067 164.383-55.06 200.146 0 2.455 3.336 7.149 4.05 10.486 1.595 3.336-2.455 4.05-7.149 1.595-10.486-23.07-31.35-60.805-47.246-112.154-47.246-119.3-1.688-149.707 91.367-130.744 175.564-14.995 1.961-23.406 3.568-24.296 3.741-2.997.583-5.341 2.926-5.927 5.922-.114.584-2.831 14.599-5.625 40.063-.453 4.119 2.519 7.823 6.636 8.275zm84.83-159.086c13.928-18.927 39.205-28.524 75.126-28.524 91.917-1.597 97.911 67.489 84.646 124.93-44.221-3.985-125.092-3.984-169.31.001-4.007-16.572-13.152-65.573 9.538-96.407z"/>
        <path d="m421.024 332.419c-4.142 0-7.5 3.358-7.5 7.5 0 77.387-7.728 130.714-10.383 146.749-7.74 1.282-24.15 3.744-47.633 5.93-9.878 1.276-8.496 15.527 1.391 14.936 34.228-3.187 53.356-6.87 54.154-7.025 2.997-.583 5.341-2.925 5.927-5.922.472-2.41 11.544-60.105 11.544-154.667 0-4.143-3.358-7.501-7.5-7.501z"/>
        <path d="m322.614 495.09c-21.617 1.282-44.026 1.933-66.603 1.933-77.595 0-131.063-7.712-147.13-10.359-2.656-16.039-10.382-69.363-10.382-146.745 0-27.462.964-54.513 2.866-80.4.384-9.928-13.888-10.97-14.96-1.099-1.928 26.251-2.906 53.671-2.906 81.499 0 94.562 11.073 152.257 11.544 154.667.586 2.997 2.93 5.338 5.927 5.922 2.416.47 60.249 11.515 155.041 11.515 22.873 0 45.58-.659 67.492-1.959 9.885-.933 9.049-15.208-.889-14.974z"/>
        <path fill="#2ae7a8" d="m256.011 461.248c4.142 0 7.5-3.358 7.5-7.5v-162.979c11.528-3.273 20-13.884 20-26.443-1.511-36.471-53.495-36.46-55 0 0 12.559 8.472 23.17 20 26.443v162.979c0 4.142 3.358 7.5 7.5 7.5zm-12.5-196.922c0-6.888 5.607-12.491 12.5-12.491 16.583.686 16.578 24.299 0 24.982-6.892 0-12.5-5.604-12.5-12.491z"/>
        <path fill="#650ff2" d="m147.4 426.078 35.305 33.139c3.014 2.831 7.762 2.689 10.601-.335 2.835-3.02 2.685-7.767-.335-10.601l-32.938-30.917v-47.537c11.528-3.273 20-13.884 20-26.443-1.511-36.471-53.495-36.46-55 0 0 12.559 8.472 23.17 20 26.443v50.784c0 2.07.857 4.049 2.367 5.467zm-7.367-82.696c0-6.888 5.607-12.491 12.5-12.491 16.583.686 16.578 24.299 0 24.982-6.893 0-12.5-5.603-12.5-12.491z"/>
        <path d="m212.488 320.32c1.999 0 3.994-.794 5.47-2.367 2.835-3.02 2.685-7.766-.335-10.601l-32.937-30.917v-50.99c-.344-9.931-14.659-9.923-15 0v54.237c0 2.071.857 4.051 2.367 5.468l35.304 33.139c1.447 1.358 3.291 2.031 5.131 2.031z"/>
        <path fill="#650ff2" d="m324.187 461.248c1.84 0 3.684-.673 5.131-2.032l35.304-33.139c1.51-1.417 2.367-3.397 2.367-5.468v-50.784c11.528-3.273 20-13.884 20-26.443-1.511-36.471-53.495-36.46-55 0 0 12.559 8.472 23.17 20 26.443v47.537l-32.937 30.917c-3.02 2.835-3.17 7.581-.335 10.601 1.476 1.574 3.471 2.368 5.47 2.368zm22.802-117.866c0-6.888 5.607-12.491 12.5-12.491 16.583.686 16.578 24.299 0 24.982-6.892 0-12.5-5.603-12.5-12.491z"/>
        <path d="m342.337 279.682v-54.237c-.344-9.931-14.659-9.923-15 0v50.99l-32.937 30.917c-3.02 2.834-3.17 7.581-.335 10.601 2.839 3.024 7.587 3.166 10.601.335l35.305-33.139c1.51-1.417 2.366-3.396 2.366-5.467z"/>
        <g>
            <path d="m212.449 393.617c4.142 0 7.5-3.358 7.5-7.5-.343-9.928-14.659-9.926-15 0 0 4.142 3.358 7.5 7.5 7.5z"/>
            <path d="m212.487 343.617c-4.142 0-7.5 3.358-7.5 7.5.343 9.928 14.659 9.926 15 0 0-4.143-3.357-7.5-7.5-7.5z"/>
            <path d="m212.485 413.617c-4.142 0-7.5 3.358-7.5 7.5.343 9.928 14.658 9.926 15 0 0-4.142-3.357-7.5-7.5-7.5z"/>
            <path d="m299.49 393.617c4.142 0 7.5-3.358 7.5-7.5-.343-9.928-14.659-9.926-15 0 0 4.142 3.357 7.5 7.5 7.5z"/>
            <path d="m299.527 358.617c4.142 0 7.5-3.358 7.5-7.5-.343-9.928-14.659-9.926-15 0 0 4.142 3.358 7.5 7.5 7.5z"/>
            <path d="m299.526 413.617c-4.142 0-7.5 3.358-7.5 7.5.343 9.928 14.658 9.926 15 0 0-4.142-3.358-7.5-7.5-7.5z"/>
        </g>
    </g>
</svg>